<svg width="32" height="32" viewBox="0 0 32 32" fill="none" xmlns="http://www.w3.org/2000/svg">
<path d="M3.42773 15.25H2.67773V16.75H3.42773V15.25ZM27.4277 16.75H28.1777V15.25H27.4277V16.75ZM3.42773 16.75H27.4277V15.25H3.42773V16.75Z" fill="black"/>
<path d="M18.8145 5.18354L18.2842 4.65321L17.2235 5.71387L17.7538 6.2442L18.8145 5.18354ZM28.5699 15.9996L29.1002 16.5299L29.6306 15.9996L29.1002 15.4693L28.5699 15.9996ZM17.7538 25.755L17.2235 26.2853L18.2842 27.346L18.8145 26.8156L17.7538 25.755ZM17.7538 6.2442L28.0396 16.5299L29.1002 15.4693L18.8145 5.18354L17.7538 6.2442ZM28.0396 15.4693L17.7538 25.755L18.8145 26.8156L29.1002 16.5299L28.0396 15.4693Z" fill="black"/>
</svg>
