<svg width="32" height="32" viewBox="0 0 32 32" fill="none" xmlns="http://www.w3.org/2000/svg">
<path d="M28.5723 15.25H29.3223V16.75H28.5723V15.25ZM4.57227 16.75H3.82227V15.25H4.57227V16.75ZM28.5723 16.75H4.57227V15.25H28.5723V16.75Z" fill="white"/>
<path d="M13.1855 5.18354L13.7158 4.65321L14.7765 5.71387L14.2462 6.2442L13.1855 5.18354ZM3.43011 15.9996L2.89978 16.5299L2.36945 15.9996L2.89978 15.4693L3.43011 15.9996ZM14.2462 25.755L14.7765 26.2853L13.7158 27.346L13.1855 26.8156L14.2462 25.755ZM14.2462 6.2442L3.96044 16.5299L2.89978 15.4693L13.1855 5.18354L14.2462 6.2442ZM3.96044 15.4693L14.2462 25.755L13.1855 26.8156L2.89978 16.5299L3.96044 15.4693Z" fill="white"/>
</svg>
