<svg width="72" height="18" viewBox="0 0 72 18" fill="none" xmlns="http://www.w3.org/2000/svg">
<g clip-path="url(#clip0_23_14)">
<path d="M0 18V0.0253518H3.04088V9.27887L12.1092 0H15.4759L7.87371 7.96056L15.9103 18H12.4622L5.94601 9.76056L3.04088 12.5746V18H0Z" fill="black"/>
<path d="M17.9237 18V0H30.766V2.50986H20.9646V7.88451H29.1641V10.2423H20.9646V18H17.9237Z" fill="black"/>
<path d="M33.6468 18V0H41.7377C42.6065 0 43.4029 0.169014 44.1269 0.507042C44.851 0.845071 45.4845 1.29296 46.0275 1.8507C46.5705 2.40845 46.9868 3.0338 47.2764 3.72676C47.566 4.41972 47.7108 5.12958 47.7108 5.85634C47.7108 6.85352 47.4665 7.80845 46.9778 8.72113C46.5072 9.6169 45.8284 10.3437 44.9415 10.9014C44.0726 11.4592 43.059 11.738 41.9006 11.738H36.6876V18H33.6468ZM36.6876 9.22817H41.7105C42.2897 9.22817 42.7966 9.08451 43.231 8.79718C43.6654 8.49296 44.0002 8.08732 44.2355 7.58028C44.489 7.07324 44.6157 6.49859 44.6157 5.85634C44.6157 5.19718 44.4709 4.61408 44.1812 4.10704C43.8916 3.6 43.5115 3.21127 43.0409 2.94084C42.5884 2.65352 42.0906 2.50986 41.5476 2.50986H36.6876V9.22817Z" fill="black"/>
<path d="M62.4064 17.1818C61.0518 17.1818 59.7915 16.9676 58.6255 16.5393C57.4767 16.1109 56.4736 15.5081 55.6163 14.7307C54.7589 13.9533 54.0902 13.041 53.6101 11.994C53.1471 10.9469 52.9156 9.80459 52.9156 8.56711C52.9156 7.34551 53.1471 6.21116 53.6101 5.16407C54.0902 4.11697 54.7589 3.21267 55.6163 2.45115C56.4736 1.67376 57.4767 1.07089 58.6255 0.642534C59.7915 0.214178 61.0518 0 62.4064 0C63.7781 0 65.047 0.214178 66.213 0.642534C67.3789 1.07089 68.3906 1.67376 69.2479 2.45115C70.1224 3.21267 70.7997 4.11697 71.2798 5.16407C71.7599 6.21116 72 7.34551 72 8.56711C72 9.80459 71.7599 10.9469 71.2798 11.994C70.7997 13.041 70.1224 13.9533 69.2479 14.7307C68.3906 15.5081 67.3789 16.1109 66.213 16.5393C65.047 16.9676 63.7781 17.1818 62.4064 17.1818ZM62.4064 16.1347C63.5895 16.1347 64.6869 15.9523 65.6986 15.5874C66.7102 15.2225 67.5933 14.7069 68.3477 14.0405C69.1193 13.3742 69.7195 12.581 70.1481 11.6608C70.5768 10.7406 70.7911 9.72526 70.7911 8.61471C70.7911 7.53589 70.5768 6.53639 70.1481 5.61622C69.7366 4.69605 69.1536 3.89486 68.3992 3.21267C67.6447 2.53047 66.7531 1.99899 65.7243 1.61823C64.7126 1.23747 63.6067 1.04709 62.4064 1.04709C61.2233 1.04709 60.1259 1.23747 59.1142 1.61823C58.1025 1.99899 57.2195 2.53047 56.465 3.21267C55.7277 3.89486 55.1447 4.69605 54.7161 5.61622C54.3045 6.52052 54.0988 7.51209 54.0988 8.59091C54.0988 9.65387 54.3045 10.6454 54.7161 11.5656C55.1276 12.4699 55.7106 13.2711 56.465 13.9692C57.2195 14.6514 58.1025 15.1828 59.1142 15.5636C60.1259 15.9443 61.2233 16.1347 62.4064 16.1347ZM62.6121 14.1357C61.7719 14.1357 60.9832 14.0009 60.2459 13.7312C59.5086 13.4615 58.857 13.0807 58.2912 12.5889C57.7253 12.0971 57.2795 11.5101 56.9537 10.8279C56.6279 10.1457 56.465 9.39209 56.465 8.56711C56.465 7.88492 56.5851 7.21065 56.8251 6.54432C57.0823 5.87799 57.4595 5.27512 57.9568 4.73571C58.4541 4.1963 59.0799 3.76794 59.8344 3.45064C60.5888 3.13334 61.4719 2.97469 62.4835 2.97469C63.6838 2.97469 64.7383 3.21267 65.6471 3.68862C66.573 4.16457 67.2418 4.84676 67.6533 5.73521L65.4671 6.37774C65.2613 5.94938 64.9784 5.62415 64.6183 5.40204C64.2754 5.16407 63.9153 5.00541 63.5381 4.92609C63.1608 4.8309 62.8093 4.78331 62.4835 4.78331C61.8663 4.78331 61.3261 4.89436 60.8632 5.11647C60.4002 5.32272 60.0144 5.60829 59.7058 5.97318C59.3971 6.33808 59.1656 6.74264 59.0113 7.18686C58.857 7.63108 58.7798 8.09116 58.7798 8.56711C58.7798 9.16998 58.8913 9.70939 59.1142 10.1853C59.3371 10.6454 59.6286 11.0341 59.9887 11.3514C60.3659 11.6687 60.7774 11.9146 61.2233 12.0891C61.6691 12.2478 62.1063 12.3271 62.535 12.3271C62.9294 12.3271 63.3237 12.2637 63.7181 12.1367C64.1296 11.994 64.5069 11.8036 64.8498 11.5656C65.1927 11.3118 65.4499 11.0103 65.6214 10.6613L67.8076 11.28C67.619 11.7084 67.2846 12.1447 66.8045 12.5889C66.3416 13.0173 65.75 13.3821 65.0298 13.6836C64.3268 13.985 63.5209 14.1357 62.6121 14.1357Z" fill="black"/>
</g>
<defs>
<clipPath id="clip0_23_14">
<rect width="72" height="18" fill="white"/>
</clipPath>
</defs>
</svg>
